# xmcd
#
# Track frame offsets:
#	150
#	11416
#	23436
#	34749
#	45237
#	57285
#	66433
#	78751
#	92179
#	104690
#	115378
#	127473
#	139056
#	149327
#	162427
#	175305
#	185373
#	197064
#	207619
#	219205
#	230230
#	242291
#	251889
#	264187
#	275797
#	287875
#	298901
#	308906
#	319997
#	332240
#	344268
#
# Disc length: 4712 seconds
#
# Revision: 3
# Processed by: cddbd v1.5.2PL0 Copyright (c) Steve Scherf et al.
# Submitted via: EasyCDDAExtractor 15.3.0.1
#
DISCID=e812661f
DTITLE=Bobby Bare - The All-American Boy_4 [1965]
DYEAR=1965
DGENRE=Country
TTITLE0=The Deepening Snow 1965
TTITLE1=I'm A Man Of Constant Sorrow 1965
TTITLE2=She Picked A Perfect Day 1965
TTITLE3=One Day At A Time 1965
TTITLE4=So Soon 1965
TTITLE5=Countin' The Hours-Countin' The Days 1965
TTITLE6=Don't Think Twice, It's All Right 1965
TTITLE7=Blowin' In The Wind 1965
TTITLE8=Delia's Gone 1965
TTITLE9=Lemon Tree 1965
TTITLE10=It's Alright 1965
TTITLE11=Salt Lake City 1965
TTITLE12=Changing My Mind 1965
TTITLE13=Good Old Tennessee (German) 1965
TTITLE14=Das Haus Auf Der Sierra (German) 1965
TTITLE15=Wilder Wolf Und Brauner Bär (So Ist Das Leben) (German) 1965
TTITLE16=Molly Brown (German) 1965
TTITLE17=A Little Bit Later On Down The Line 1965
TTITLE18=Got Leavin' On Hear Mind 1965
TTITLE19=Try To Remember 1994
TTITLE20=All The Good Times Are Past And Gone 1965
TTITLE21=Memories 1965
TTITLE22=Heaven Help My Soul 1965
TTITLE23=(For A Whild) We Helped Each Other Out 1965
TTITLE24=In The Same Old Way 1968
TTITLE25=Talk Me Some Sense (With Recitation) 1994
TTITLE26=You Can't Stop The Wild Wind From Blowing 1965
TTITLE27=It Ain't Me Babe 1965
TTITLE28=The Long Black Veil 1965
TTITLE29=Passin' Through 1965
TTITLE30=What Color (Is A Man) 1965
EXTD=
EXTT0=
EXTT1=
EXTT2=
EXTT3=
EXTT4=
EXTT5=
EXTT6=
EXTT7=
EXTT8=
EXTT9=
EXTT10=
EXTT11=
EXTT12=
EXTT13=
EXTT14=
EXTT15=
EXTT16=
EXTT17=
EXTT18=
EXTT19=
EXTT20=
EXTT21=
EXTT22=
EXTT23=
EXTT24=
EXTT25=
EXTT26=
EXTT27=
EXTT28=
EXTT29=
EXTT30=
PLAYORDER=
